<?xml version="1.0" standalone="no"?>
<!DOCTYPE svg PUBLIC "-//W3C//DTD SVG 20010904//EN"
 "http://www.w3.org/TR/2001/REC-SVG-20010904/DTD/svg10.dtd">
<svg version="1.0" xmlns="http://www.w3.org/2000/svg"
 width="1024.000000pt" height="1536.000000pt" viewBox="0 0 1024.000000 1536.000000"
 preserveAspectRatio="xMidYMid meet">

<g transform="translate(0.000000,1536.000000) scale(0.100000,-0.100000)"
fill="#000000" stroke="none">
<path d="M4890 15001 c-175 -15 -327 -32 -375 -42 -27 -5 -70 -14 -95 -18 -62
-12 -95 -25 -250 -104 -188 -96 -227 -127 -381 -299 -104 -117 -169 -209 -151
-215 6 -3 12 -13 12 -23 0 -10 5 -22 10 -25 17 -10 11 -37 -18 -91 -38 -71
-58 -93 -127 -139 -33 -22 -69 -48 -80 -57 -11 -9 -34 -27 -52 -40 -18 -13
-48 -36 -68 -52 -27 -22 -47 -30 -73 -29 -30 1 -45 -7 -84 -43 -26 -24 -51
-44 -55 -44 -4 0 -23 9 -41 20 -48 30 -53 26 -46 -33 6 -47 3 -56 -20 -84 -14
-17 -26 -35 -26 -40 0 -5 -26 -47 -57 -94 -31 -46 -70 -113 -87 -149 -28 -59
-31 -74 -30 -160 1 -109 14 -153 74 -242 43 -64 47 -82 28 -123 -25 -55 -137
-90 -200 -62 -18 8 -41 17 -50 20 -49 17 -16 -59 39 -88 63 -34 72 -86 24
-129 -12 -11 -31 -34 -42 -53 -19 -30 -20 -43 -14 -190 9 -217 30 -289 109
-373 23 -25 61 -77 83 -115 46 -79 63 -97 113 -117 19 -8 41 -27 49 -41 32
-59 -19 -105 -103 -93 -42 7 -50 12 -117 85 -26 29 -44 26 -59 -9 -23 -56 19
-127 122 -206 41 -32 78 -51 112 -59 48 -11 51 -13 54 -46 2 -20 -6 -56 -18
-83 -35 -82 -23 -219 26 -297 28 -45 113 -121 160 -144 29 -14 51 -16 110 -10
l73 7 30 -60 c32 -63 88 -118 131 -129 94 -22 105 -68 40 -154 -42 -56 -57
-97 -69 -186 -5 -36 -21 -71 -52 -119 -55 -84 -69 -124 -69 -195 0 -45 -4 -60
-23 -77 -13 -12 -30 -22 -39 -22 -9 0 -21 -7 -28 -15 -7 -8 -18 -15 -26 -15
-7 0 -17 -6 -21 -12 -4 -7 -43 -31 -85 -52 -43 -22 -78 -43 -78 -47 0 -4 -8
-10 -17 -13 -18 -6 -28 -12 -88 -50 -16 -11 -62 -51 -100 -90 -75 -76 -103
-125 -208 -366 -16 -37 -55 -154 -77 -230 -7 -25 -16 -56 -20 -70 -8 -26 -27
-92 -41 -145 -7 -28 -17 -76 -40 -205 -25 -135 -31 -167 -40 -202 -14 -59 -31
-121 -39 -148 -24 -77 -59 -212 -80 -305 -13 -56 -28 -118 -40 -155 -4 -14
-13 -45 -20 -70 -7 -25 -16 -54 -20 -65 -5 -11 -11 -31 -14 -45 -2 -14 -10
-43 -16 -65 -27 -94 -46 -213 -60 -370 -6 -60 -15 -138 -20 -172 -6 -35 -15
-91 -20 -125 -24 -146 -32 -272 -39 -598 -4 -190 -11 -356 -15 -370 -4 -14
-12 -45 -18 -70 -5 -25 -13 -56 -18 -70 -32 -103 -33 -109 -20 -157 19 -76 30
-99 57 -125 51 -47 54 -72 52 -343 -2 -216 0 -254 14 -280 25 -45 31 -91 19
-149 -6 -28 -16 -82 -22 -121 -7 -38 -21 -108 -32 -155 -23 -96 -29 -282 -10
-340 41 -130 74 -228 81 -245 5 -11 19 -54 32 -95 12 -41 26 -79 31 -84 4 -6
8 -18 8 -27 0 -20 60 -121 94 -160 13 -15 43 -35 65 -45 23 -10 41 -21 41 -26
0 -4 9 -8 19 -8 11 0 22 -4 26 -9 3 -6 30 -22 61 -36 30 -14 96 -51 145 -81
92 -56 127 -65 149 -39 7 8 17 15 22 15 5 0 16 7 24 15 9 8 23 15 33 15 36 0
90 93 91 155 0 45 23 97 61 137 22 23 44 58 49 78 12 49 -9 198 -62 430 -6 25
-12 144 -14 264 l-5 220 -40 119 c-33 97 -40 129 -35 166 3 25 10 89 15 141
11 102 24 182 39 243 10 38 25 69 91 191 17 32 40 83 50 113 10 29 22 55 27
56 5 1 14 -41 21 -93 8 -52 18 -124 23 -160 5 -39 5 -93 0 -135 -21 -156 -11
-250 33 -332 9 -18 17 -40 17 -51 0 -10 4 -22 9 -28 6 -5 12 -112 15 -239 8
-300 22 -582 35 -670 10 -66 16 -108 41 -257 6 -35 15 -97 20 -138 9 -71 18
-138 39 -290 6 -36 14 -86 20 -113 6 -26 15 -66 20 -90 6 -23 15 -62 21 -87
28 -112 32 -142 35 -253 3 -115 12 -155 44 -207 28 -43 41 -111 30 -155 -11
-45 -6 -210 10 -320 5 -38 14 -108 19 -155 6 -47 13 -98 17 -115 4 -18 0 -54
-10 -90 -10 -33 -19 -70 -22 -83 -3 -12 -9 -25 -14 -28 -5 -3 -9 -20 -9 -39 0
-34 5 -49 41 -132 25 -56 24 -101 -3 -182 -24 -72 -61 -131 -83 -131 -8 0 -19
-9 -25 -20 -6 -11 -17 -20 -24 -20 -16 0 -33 -35 -41 -85 -5 -31 -20 -55 -68
-106 -59 -62 -256 -219 -275 -219 -5 0 -15 -7 -22 -15 -7 -8 -20 -15 -30 -15
-10 0 -23 -7 -30 -15 -7 -8 -20 -15 -30 -15 -10 0 -23 -7 -30 -15 -7 -8 -22
-15 -34 -15 -12 0 -31 -7 -42 -15 -10 -8 -25 -15 -32 -15 -13 0 -78 -44 -135
-91 -30 -25 -77 -99 -77 -121 0 -5 -16 -44 -37 -86 -55 -116 -61 -135 -50
-160 l10 -22 739 0 739 0 27 28 c15 16 42 46 61 67 l34 38 91 -8 c50 -4 100
-7 111 -7 41 0 111 15 130 28 11 8 31 14 46 14 15 0 40 7 55 15 16 8 39 15 51
15 19 0 53 14 103 42 8 4 22 11 30 15 30 13 69 62 75 95 8 44 1 307 -14 469
-9 106 -8 135 4 175 19 64 19 144 -1 194 -18 45 -15 101 11 201 17 63 17 69 0
141 -16 69 -16 89 -4 254 7 98 13 276 12 394 -1 118 -3 292 -4 385 -1 180 1
191 53 273 19 31 20 38 8 106 -13 78 -11 115 14 241 9 44 21 143 27 220 7 94
18 163 34 210 13 39 26 85 30 102 4 18 10 35 15 38 17 10 60 -89 60 -137 0
-15 5 -30 10 -33 6 -3 10 -17 10 -30 0 -13 4 -34 9 -47 5 -13 14 -43 21 -68 7
-25 16 -53 21 -62 5 -10 9 -25 9 -33 0 -8 4 -23 10 -33 12 -22 60 -165 72
-217 29 -125 46 -209 57 -275 16 -91 22 -113 43 -160 47 -103 49 -114 58 -295
8 -141 13 -186 39 -310 23 -105 33 -162 41 -230 5 -38 14 -92 20 -120 33 -146
43 -311 25 -418 -8 -51 1 -94 37 -177 16 -34 20 -66 20 -135 -1 -96 21 -165
57 -185 24 -12 45 -81 37 -122 -4 -18 -11 -71 -16 -118 -5 -47 -14 -123 -19
-170 -11 -89 -6 -158 13 -194 6 -12 38 -56 71 -98 l60 -77 647 -1 647 0 -6 38
c-9 65 -24 101 -73 175 -167 252 -194 301 -232 411 -50 146 -49 172 3 232 l41
48 -7 85 c-4 47 -6 145 -5 216 1 77 -4 159 -13 201 -11 61 -11 89 0 185 19
157 9 589 -18 746 -11 68 -18 153 -17 220 1 84 -3 120 -18 163 -16 46 -19 80
-18 215 1 88 6 189 12 225 6 36 13 106 17 155 10 134 38 219 91 271 51 49 85
121 108 229 24 111 34 140 55 159 34 31 43 0 45 -157 1 -161 -1 -168 -84 -268
-27 -33 -55 -80 -65 -111 -10 -29 -30 -71 -44 -93 -39 -59 -51 -91 -51 -140 0
-35 5 -48 27 -64 22 -18 34 -20 77 -15 28 4 57 13 64 21 7 7 23 13 36 13 12 0
26 4 31 9 6 6 41 13 80 17 38 4 76 13 83 21 7 7 22 13 33 13 11 0 22 7 25 15
4 8 14 15 24 15 10 0 20 7 24 15 3 8 12 15 20 15 8 0 16 3 18 8 2 4 26 25 53
47 28 22 52 42 55 45 10 10 69 50 75 50 3 0 13 8 23 18 33 32 86 72 94 72 34
0 102 84 159 196 65 129 81 180 110 349 6 39 15 83 20 99 14 45 10 221 -7 331
-23 145 -22 181 9 250 21 48 27 76 27 137 0 42 4 98 9 125 6 26 15 75 21 108
16 82 29 118 71 200 42 80 68 156 80 235 5 30 13 84 19 120 5 36 14 88 19 115
78 428 115 820 116 1230 0 296 0 298 -51 550 -9 44 -18 91 -21 105 -8 45 -63
272 -93 385 -35 131 -67 260 -79 320 -7 33 -17 71 -21 85 -5 14 -18 66 -30
115 -31 135 -73 287 -90 330 -4 11 -20 63 -35 115 -23 84 -80 248 -105 305
-36 85 -114 238 -139 276 -32 48 -114 113 -181 145 -8 4 -41 27 -72 51 -31 24
-61 43 -67 43 -6 0 -11 4 -11 9 0 5 -10 13 -22 16 -47 14 -109 48 -118 65 -5
9 -7 55 -3 101 l6 84 -54 105 -53 105 -6 162 c-7 189 -12 203 -98 235 -67 25
-89 55 -70 95 18 38 70 71 126 79 49 7 76 21 126 64 51 43 70 69 119 161 53
100 57 133 27 204 -30 71 -27 91 18 105 45 15 138 65 162 88 34 34 71 110 68
142 l-3 31 -34 -25 c-29 -21 -46 -26 -97 -26 -57 0 -64 3 -107 40 -52 46 -87
98 -87 128 0 25 86 155 130 197 22 21 41 30 67 30 36 1 36 1 73 96 21 52 58
124 82 160 31 45 47 81 51 114 12 83 8 223 -9 302 -19 95 -97 306 -109 296 -4
-4 -5 -3 -1 4 17 30 -67 183 -101 183 -13 0 -13 -3 -3 -15 18 -21 4 -32 -17
-13 -10 8 -27 18 -37 22 -10 3 -17 9 -14 12 6 5 -108 116 -240 233 -85 77
-122 142 -180 317 -61 184 -105 259 -263 449 -50 61 -109 137 -132 170 -81
118 -289 315 -362 343 -26 10 -106 22 -229 36 -22 2 -65 -1 -96 -6 -31 -6 -68
-8 -81 -5 -13 4 -51 32 -84 64 -63 61 -180 136 -230 147 -16 4 -61 13 -100 21
-38 8 -84 18 -101 23 -45 14 -264 21 -364 13z m445 -971 c0 -1 25 -3 55 -5 30
-2 89 -7 130 -11 41 -4 79 -6 85 -5 5 1 7 -1 3 -5 -8 -7 36 -34 56 -34 12 0
30 -16 119 -104 59 -59 97 -120 97 -155 0 -11 4 -22 9 -25 4 -3 11 -27 15 -54
14 -109 58 -243 117 -363 88 -177 111 -230 115 -263 4 -32 -4 -31 -11 2 -4 20
-34 72 -42 72 -2 0 1 -9 7 -21 7 -11 9 -23 6 -26 -2 -3 -19 22 -35 56 -17 34
-35 61 -40 61 -10 0 -45 32 -100 95 -24 28 -41 44 -37 38 4 -7 3 -13 -2 -13
-5 0 -14 10 -21 23 -12 23 -44 43 -115 71 -45 19 -49 19 -41 6 10 -17 -18 -11
-53 10 -42 26 -50 25 -26 -1 19 -22 19 -22 -1 -12 -27 15 -245 26 -225 12 11
-8 9 -9 -10 -3 -14 4 -27 11 -29 16 -2 7 -6 6 -10 0 -3 -6 -18 -13 -33 -17
-23 -6 -26 -4 -21 14 3 12 10 21 16 21 6 0 8 3 4 6 -3 3 -22 -7 -41 -23 -20
-15 -41 -28 -48 -28 -7 0 -18 -11 -25 -25 l-13 -25 0 23 c0 16 -11 3 -35 -44
-31 -60 -48 -138 -27 -132 17 6 72 -37 72 -56 0 -20 0 -20 15 0 14 19 14 19
15 -1 l1 -20 9 20 9 20 1 -20 c1 -20 1 -20 15 -1 12 16 15 16 15 4 0 -11 11
-15 48 -14 26 1 53 5 60 9 6 5 12 4 12 -2 0 -6 17 -8 43 -5 38 5 110 6 147 2
8 -1 29 1 45 5 17 3 24 4 18 1 -27 -12 -12 -25 18 -19 22 5 29 4 25 -4 -5 -7
2 -11 16 -11 36 0 96 -19 113 -36 8 -9 15 -13 15 -9 0 3 6 1 13 -5 46 -39 62
-50 78 -55 11 -4 17 -11 14 -16 -4 -5 -1 -9 6 -9 33 0 100 -50 154 -114 33
-39 59 -74 58 -78 -2 -5 6 -8 16 -8 13 0 27 -15 42 -45 13 -25 26 -42 31 -37
13 13 13 125 0 130 -7 2 -12 13 -11 25 0 22 0 22 9 -1 5 -12 16 -25 24 -28 14
-5 26 -30 32 -63 2 -8 6 -17 11 -20 10 -8 27 -42 54 -111 33 -85 38 -106 55
-240 21 -159 20 -150 30 -310 11 -192 11 -194 1 -207 -5 -7 -6 -17 -2 -23 3
-5 1 -10 -5 -10 -6 0 -8 -10 -4 -25 5 -22 4 -24 -12 -18 -17 6 -18 5 -4 -12
14 -17 13 -18 -4 -12 -15 6 -17 4 -13 -13 3 -12 1 -18 -5 -14 -6 4 -8 -1 -3
-15 5 -17 3 -20 -11 -14 -13 5 -15 3 -7 -13 5 -10 9 -32 9 -49 -1 -26 -5 -30
-28 -29 -31 1 -37 -16 -13 -36 27 -22 16 -32 -12 -11 -28 23 -43 21 -23 -4 15
-18 -1 -20 -18 -3 -16 16 -15 8 3 -36 18 -42 5 -49 -15 -8 l-13 27 -8 -30 c-3
-16 -7 -22 -8 -12 -2 27 -21 10 -21 -18 0 -18 -4 -23 -16 -18 -14 5 -15 3 -5
-15 8 -15 8 -21 -2 -25 -9 -3 -9 -11 0 -36 l12 -33 -24 26 c-28 30 -40 33 -30
9 5 -14 1 -13 -14 4 -12 12 -21 28 -21 35 0 7 -7 0 -15 -16 -8 -15 -12 -33 -8
-40 4 -6 -1 -4 -11 4 -17 13 -21 12 -43 -14 -13 -16 -27 -25 -31 -21 -4 4 -1
10 6 12 6 3 9 9 6 14 -3 6 -11 3 -19 -7 -11 -16 -15 -13 -37 27 -14 24 -31 61
-38 81 -7 22 -25 47 -43 60 -18 12 -38 28 -44 34 -26 25 -153 53 -153 33 0 -6
-7 -9 -15 -5 -9 3 -15 0 -15 -9 0 -8 -7 -15 -15 -15 -8 0 -15 -4 -15 -10 0 -5
-9 -10 -21 -10 -13 0 -18 -4 -13 -12 5 -8 0 -7 -11 2 -14 11 -19 12 -22 3 -3
-8 -14 -11 -29 -7 -20 5 -24 3 -24 -17 0 -19 -2 -21 -10 -9 -8 12 -10 12 -10
1 0 -11 -3 -11 -15 -1 -12 10 -19 10 -27 2 -9 -9 -8 -12 2 -13 9 0 7 -4 -5 -9
-14 -5 -24 -3 -32 8 -11 13 -13 13 -19 -3 -7 -17 -8 -17 -21 1 -12 16 -13 16
-13 1 0 -20 -11 -22 -29 -4 -11 10 -14 9 -18 -1 -3 -6 -10 -9 -16 -5 -21 13
-37 12 -37 -2 0 -8 -4 -17 -10 -20 -7 -4 -7 2 -1 18 6 14 8 27 5 30 -2 2 13
20 34 39 58 52 58 57 7 52 -40 -4 -49 -1 -71 23 -20 21 -27 24 -34 14 -5 -9
-17 -12 -36 -7 -49 12 -124 16 -124 7 0 -4 -25 -11 -55 -15 -50 -6 -64 -3
-131 29 -42 19 -85 47 -97 62 -12 16 -31 37 -42 49 -11 11 -22 33 -23 50 -2
16 -8 34 -12 39 -4 6 -4 33 0 60 5 28 9 55 9 61 1 6 17 28 36 50 20 21 38 49
41 62 9 31 -2 93 -18 105 -10 7 -9 8 3 4 12 -4 15 5 15 47 -1 61 21 117 43
108 11 -4 13 -1 8 12 -4 10 -10 29 -13 42 -3 13 -9 24 -13 24 -4 0 -8 33 -9
73 -3 98 -7 132 -22 197 -7 30 -12 63 -12 72 1 10 -3 20 -9 23 -5 4 -9 19 -9
36 0 16 -5 29 -11 29 -6 0 -9 6 -7 13 3 6 -3 26 -13 42 -10 17 -26 44 -35 60
-9 17 -25 37 -35 46 -21 18 -26 49 -8 49 6 0 8 7 5 16 -3 8 -2 12 4 9 6 -3 10
1 10 9 0 9 7 16 15 16 8 0 15 7 15 15 0 8 6 15 14 15 18 0 26 22 19 52 -4 18
-3 20 6 8 17 -24 14 9 -4 44 -9 16 -13 36 -10 43 2 8 0 11 -5 8 -6 -3 -10 1
-10 9 0 35 -43 101 -76 117 -32 15 -33 15 -23 -2 5 -11 7 -19 5 -19 -3 0 -13
14 -21 31 -11 21 -21 28 -33 25 -9 -3 -29 1 -44 8 -15 8 -29 11 -32 8 -10 -9
-96 -10 -102 -1 -11 18 -92 5 -146 -22 -26 -13 -36 -11 -48 11 -9 16 -8 18 6
13 10 -4 15 -1 13 8 -2 8 4 28 14 44 16 29 16 29 17 6 0 -33 9 -22 12 15 1 16
10 37 20 47 10 10 21 29 24 42 3 14 11 22 17 18 7 -4 8 0 4 11 -4 10 -7 23 -7
29 0 7 -4 6 -10 -3 -9 -13 -10 -13 -9 0 0 8 4 24 9 35 7 16 9 17 9 3 1 -9 8
-24 17 -33 9 -8 13 -22 10 -30 -3 -8 -1 -15 4 -15 13 0 13 33 -1 47 -7 7 -6
14 3 24 8 8 17 22 21 32 3 9 14 17 23 17 19 0 54 28 54 42 0 5 -10 6 -22 3
-16 -4 -19 -4 -9 3 11 8 10 12 -5 22 -18 10 -17 11 4 7 12 -3 22 -1 22 4 0 4
17 12 38 18 20 5 51 12 67 16 l30 8 -25 7 -25 7 30 12 c17 7 54 15 83 18 33 4
48 9 40 14 -28 17 0 23 187 34 92 6 135 12 310 45 33 7 73 14 89 16 16 2 31 6
33 8 4 3 68 -1 68 -4z m-1028 -247 c-3 -10 -5 -4 -5 12 0 17 2 24 5 18 2 -7 2
-21 0 -30z m-95 -235 c-12 -18 -33 -45 -48 -58 -18 -17 -14 -8 15 30 22 30 41
59 41 64 0 5 3 7 6 3 4 -3 -3 -21 -14 -39z m342 -144 c5 -14 4 -15 -9 -4 -17
14 -19 20 -6 20 5 0 12 -7 15 -16z m1251 -84 c10 -11 13 -20 7 -20 -6 0 -16 9
-22 20 -6 11 -9 20 -7 20 2 0 12 -9 22 -20z m433 -465 c-3 -3 -9 2 -12 12 -6
14 -5 15 5 6 7 -7 10 -15 7 -18z m-1945 -122 c-7 -2 -19 -2 -25 0 -7 3 -2 5
12 5 14 0 19 -2 13 -5z m107 -13 c0 -5 9 -10 20 -10 11 0 20 -4 20 -10 0 -5 5
-10 11 -10 6 0 17 -7 25 -15 19 -18 12 -19 -46 -2 -25 7 -64 12 -88 11 -37 -2
-43 0 -38 14 4 12 2 11 -9 -3 -14 -17 -17 -18 -25 -5 -13 20 -13 33 0 25 5 -3
18 -1 27 4 23 13 103 14 103 1z m-128 -158 c-28 -27 -55 -65 -62 -86 -12 -36
-9 -100 6 -139 5 -13 1 -17 -20 -17 -14 0 -26 5 -26 11 0 5 -4 8 -9 5 -13 -8
-39 95 -33 134 11 77 82 137 165 139 28 1 28 0 -21 -47z m199 -32 c19 -11 21
-51 3 -57 -19 -5 -46 25 -39 46 7 24 9 25 36 11z m90 -213 c-10 -9 -11 -8 -5
6 3 10 9 15 12 12 3 -3 0 -11 -7 -18z m-361 -47 c47 -11 114 -20 150 -20 57 0
86 4 178 25 39 9 24 -11 -19 -25 -62 -21 -260 -18 -324 4 -77 26 -104 40 -110
53 -3 10 2 9 18 -2 12 -8 60 -23 107 -35z m230 -64 c0 -9 -30 -14 -35 -6 -4 6
3 10 14 10 12 0 21 -2 21 -4z m-3 -134 c-10 -10 -17 -26 -17 -36 0 -9 -5 -14
-10 -11 -6 4 -8 12 -4 18 3 7 -2 3 -10 -7 -9 -11 -17 -27 -17 -35 -5 -57 -4
-88 3 -98 5 -6 5 -14 -2 -18 -5 -3 -8 -16 -5 -28 6 -23 1 -30 -82 -107 -18
-16 -43 -30 -56 -30 -13 0 -38 -7 -55 -16 -18 -8 -41 -13 -52 -9 -14 4 -20 2
-20 -8 0 -7 -7 -14 -15 -14 -8 0 -11 5 -8 10 4 6 -3 8 -15 5 -13 -4 -22 -1
-22 5 0 6 -12 21 -27 33 -30 24 -39 75 -22 131 7 22 7 38 0 52 -9 16 -8 22 5
29 14 8 13 13 -12 36 -16 15 -23 26 -15 26 11 0 11 3 0 17 -13 15 -12 16 9 11
17 -5 23 -2 21 10 -3 35 1 37 82 36 44 -1 129 1 187 5 184 14 178 14 159 -7z
m2203 -161 c0 -28 -20 4 -25 39 l-5 35 14 -30 c9 -16 15 -37 16 -44z m-19 -29
c-6 -2 -11 -14 -11 -27 0 -25 -15 -42 -24 -27 -2 4 -2 27 1 50 6 41 6 42 25
25 11 -10 15 -19 9 -21z m115 -39 c-5 -12 -9 -13 -21 -3 -16 13 -12 43 9 69 9
12 12 8 14 -18 2 -18 1 -40 -2 -48z m179 25 c-4 -18 -14 -49 -23 -68 -8 -19
-14 -38 -14 -42 3 -15 -125 -173 -137 -170 -7 1 -10 -2 -7 -7 9 -14 -54 -62
-73 -57 -9 3 -35 6 -58 8 l-42 2 5 75 c3 42 7 96 9 121 2 25 4 49 5 53 1 18
85 46 123 40 27 -4 42 -1 56 11 22 20 76 19 59 -2 -8 -9 -13 -10 -18 -1 -6 8
-9 8 -14 0 -4 -6 -2 -11 3 -11 19 0 12 -26 -14 -50 -41 -39 -30 -56 13 -19 41
36 82 91 82 111 0 11 21 27 48 37 2 0 0 -14 -3 -31z m-525 -303 c11 -13 10
-14 -4 -9 -9 3 -16 10 -16 15 0 13 6 11 20 -6z m-216 -231 c3 -8 2 -12 -4 -9
-6 3 -10 10 -10 16 0 14 7 11 14 -7z m-139 -52 c-7 -7 -45 29 -45 41 0 6 11 0
25 -13 14 -13 23 -26 20 -28z m-351 -117 c27 -25 35 -57 14 -52 -7 1 -12 -5
-13 -13 -2 -36 -18 -90 -26 -90 -5 0 -9 -7 -9 -15 0 -8 -5 -15 -12 -15 -6 0
-8 -3 -5 -7 4 -3 2 -13 -5 -20 -9 -11 -9 -17 3 -25 11 -8 10 -9 -5 -4 -14 5
-17 2 -12 -11 6 -15 4 -15 -14 2 -19 17 -20 17 -20 0 0 -14 -3 -15 -15 -5 -15
12 -19 4 -18 -37 0 -6 -6 -9 -15 -6 -11 5 -13 2 -8 -8 4 -8 0 -5 -8 5 -16 20
-16 20 -16 0 0 -16 -2 -17 -10 -4 -8 13 -10 12 -10 -3 0 -10 5 -28 11 -40 6
-12 -2 -6 -19 13 -16 19 -33 32 -38 28 -4 -5 0 -16 9 -26 10 -10 17 -27 16
-38 0 -17 -1 -16 -9 4 -5 12 -14 22 -20 22 -5 0 -10 -10 -10 -22 l-1 -23 -21
25 -20 25 4 -43 c3 -37 2 -41 -9 -26 -7 9 -10 20 -8 25 3 4 0 11 -6 15 -8 4
-9 3 -5 -4 13 -21 -20 -13 -40 9 -22 24 -27 82 -6 74 10 -3 10 0 2 16 -6 11
-8 29 -5 40 4 13 1 27 -9 38 -14 15 -27 17 -79 12 -143 -14 -338 5 -396 39
-14 8 -13 10 4 11 69 4 106 10 131 20 32 13 51 16 142 24 35 2 67 7 72 10 4 3
18 1 31 -3 36 -14 112 6 294 75 97 38 154 40 189 8z m-2374 -135 c0 -5 -2 -10
-4 -10 -3 0 -8 5 -11 10 -3 6 -1 10 4 10 6 0 11 -4 11 -10z m1980 -180 c0 -5
-5 -10 -11 -10 -5 0 -7 5 -4 10 3 6 8 10 11 10 2 0 4 -4 4 -10z m-6 -75 c3 -8
1 -15 -4 -15 -6 0 -10 7 -10 15 0 8 2 15 4 15 2 0 6 -7 10 -15z m34 -26 c-3
-8 -7 -3 -11 10 -4 17 -3 21 5 13 5 -5 8 -16 6 -23z m699 -248 c-1 -20 -6 -27
-17 -23 -12 4 -13 2 -2 -9 14 -15 16 -55 2 -64 -5 -3 -7 -12 -4 -19 3 -8 1
-17 -5 -21 -6 -3 -11 -15 -11 -26 0 -10 -6 -19 -12 -19 -9 0 -8 -3 2 -10 12
-8 12 -10 -4 -16 -12 -5 -14 -9 -6 -14 8 -5 8 -11 -2 -21 -7 -8 -20 -23 -28
-34 -14 -19 -14 -19 3 -6 9 8 20 11 23 9 6 -7 -87 -72 -238 -169 -81 -51 -116
-68 -131 -64 -15 4 -18 3 -9 -3 10 -7 1 -17 -38 -41 -29 -18 -54 -30 -57 -27
-3 3 9 13 26 24 25 15 28 21 18 32 -10 12 -9 12 6 1 9 -8 21 -10 25 -6 4 4 1
10 -7 13 -11 4 -11 6 0 14 11 8 11 9 -2 5 -9 -3 -22 -1 -30 4 -12 8 -11 12 5
24 11 8 27 15 35 15 9 0 25 20 36 45 11 25 25 45 31 45 7 0 14 7 18 15 3 8 1
15 -4 15 -24 0 -7 21 21 27 20 4 27 9 20 16 -9 9 35 52 79 77 12 7 12 11 1 24
-12 14 -12 16 2 10 18 -7 50 19 39 31 -4 4 5 5 21 1 16 -4 27 -2 27 4 0 5 -5
10 -12 10 -6 0 -2 9 10 21 12 11 27 17 32 14 6 -3 10 1 10 9 0 10 6 13 15 10
10 -4 15 0 15 15 0 12 6 21 14 21 8 0 16 7 20 15 3 8 13 15 21 15 9 0 14 4 10
9 -4 8 18 29 32 31 1 0 1 -13 0 -29z m-547 -590 c0 -5 -7 -12 -16 -15 -14 -5
-15 -4 -4 9 14 17 20 19 20 6z m-86 -50 c3 -5 -1 -11 -9 -14 -9 -4 -12 -1 -8
9 6 16 10 17 17 5z m-34 -25 c0 -2 -8 -10 -17 -17 -16 -13 -17 -12 -4 4 13 16
21 21 21 13z m79 -116 c0 -10 -3 -8 -9 5 -12 27 -12 43 0 25 5 -8 9 -22 9 -30z
m-147 -7 c-3 -16 -7 -22 -10 -15 -4 13 4 42 11 42 2 0 2 -12 -1 -27z m-242
-763 c253 -73 435 -216 538 -422 97 -195 113 -414 47 -643 -60 -207 -177 -381
-330 -490 -103 -74 -280 -165 -320 -165 -8 0 -8 25 -2 88 10 112 1 242 -23
304 -13 35 -15 50 -7 53 7 2 34 8 61 15 193 44 348 223 371 425 8 75 -14 189
-50 252 -23 43 -24 49 -14 112 14 82 0 143 -37 167 -41 28 -140 14 -209 -28
l-57 -35 -56 21 c-80 28 -282 28 -362 -1 -55 -20 -55 -20 -75 0 -33 32 -117
67 -163 67 -75 0 -112 -60 -112 -185 0 -50 -7 -73 -41 -142 -39 -76 -42 -89
-47 -180 -5 -109 14 -185 65 -266 63 -100 207 -200 312 -216 l46 -7 -47 -47
c-26 -25 -61 -53 -77 -62 -29 -14 -31 -14 -54 9 -14 14 -52 38 -85 55 -33 17
-63 35 -67 41 -9 15 -112 90 -124 90 -15 0 -22 -30 -11 -50 5 -10 32 -38 59
-62 27 -23 70 -71 95 -105 27 -37 69 -78 102 -100 l56 -37 38 20 38 21 -5
-101 c-3 -56 -7 -102 -8 -104 -6 -7 -149 58 -213 96 -254 151 -412 480 -388
803 30 404 340 738 769 829 76 16 303 4 387 -20z m2015 -2853 c13 -53 9 -317
-5 -382 -16 -74 -16 -134 0 -245 15 -100 15 -155 1 -270 -11 -95 -19 -135 -31
-165 -20 -50 -30 -85 -40 -155 -7 -41 -17 -88 -23 -105 -25 -69 -77 -172 -96
-189 -21 -19 -21 -19 -36 17 -18 44 -19 164 -2 227 7 25 24 65 37 90 23 42 25
58 32 250 8 219 14 293 27 325 5 11 14 47 21 80 6 33 14 69 17 80 5 21 18 135
32 295 9 93 19 162 27 189 7 21 30 -4 39 -42z m-4452 -1199 c3 -10 8 -10 21 1
15 12 19 12 26 1 4 -7 6 -20 3 -29 -4 -10 2 -7 14 7 30 32 51 27 44 -11 -1 -5
3 -6 9 -2 5 3 10 1 10 -4 0 -6 7 -11 16 -11 9 0 14 -6 11 -13 -3 -9 7 -19 29
-27 35 -14 43 -25 22 -32 -13 -5 -4 -38 11 -38 5 0 12 8 15 18 3 9 4 0 1 -20
-2 -21 1 -40 6 -43 5 -4 9 -17 9 -31 0 -15 6 -24 15 -24 17 0 20 -11 5 -26 -6
-6 -6 -23 1 -48 6 -21 8 -45 5 -53 -4 -10 -2 -13 8 -10 8 3 18 -5 25 -19 15
-34 14 -54 -4 -60 -8 -3 -17 -14 -20 -24 -6 -19 -52 -33 -61 -19 -3 5 -16 9
-29 9 -34 0 -55 10 -55 26 0 7 -6 11 -14 8 -7 -3 -16 2 -19 10 -7 18 -57 22
-57 4 0 -6 -9 -3 -20 7 -19 18 -20 17 -20 -3 0 -27 -17 -37 -36 -21 -8 6 -17
9 -21 5 -3 -3 -2 -6 3 -6 5 0 9 -25 9 -55 0 -40 -3 -54 -12 -50 -17 6 -44 -5
-38 -15 3 -5 -2 -13 -12 -19 -16 -8 -14 -10 10 -16 15 -4 25 -11 22 -15 -3 -4
2 -13 10 -20 10 -8 12 -17 6 -28 -6 -10 -6 -23 0 -34 6 -10 5 -19 -1 -23 -5
-3 -11 0 -11 7 -1 7 -4 -3 -8 -22 -5 -32 -9 -35 -43 -38 -22 -2 -38 1 -38 7 0
6 -7 11 -16 11 -8 0 -12 5 -9 10 3 6 -1 13 -9 16 -9 3 -16 11 -16 16 0 6 -6
16 -14 22 -8 6 -17 26 -21 44 -7 32 -6 33 15 22 12 -6 24 -9 28 -6 3 3 0 6 -7
6 -8 0 -5 10 8 28 12 18 18 37 14 50 -4 18 -1 22 16 22 11 0 21 -4 21 -10 0
-5 -6 -10 -12 -10 -9 0 -8 -3 2 -10 15 -10 33 7 23 22 -2 5 1 16 8 24 8 10 9
18 3 22 -6 4 -18 22 -27 41 -16 32 -16 35 1 47 16 13 16 13 0 14 -24 0 -23 13
3 36 19 17 19 19 3 31 -17 12 -17 13 0 13 14 0 16 3 8 13 -10 12 -1 42 30 101
7 13 6 21 -2 26 -6 4 -12 28 -14 54 -1 26 1 42 4 35 9 -13 15 -4 24 34 3 15
13 27 21 27 8 0 15 7 15 16 0 10 6 14 15 10 10 -4 15 1 15 14 0 22 16 27 23 8z
m4665 -129 c48 20 467 -40 518 -74 16 -11 31 -20 34 -21 3 -1 15 -5 27 -9 12
-4 26 -20 32 -37 6 -16 15 -27 20 -24 5 4 14 -2 20 -11 9 -16 10 -15 11 7 1
61 18 -13 29 -127 13 -138 13 -248 1 -198 l-7 30 -6 -25 c-4 -14 -9 -70 -11
-125 -5 -99 -27 -240 -41 -253 -4 -4 -4 4 0 18 7 23 6 24 -7 6 -14 -18 -15
-18 -21 3 -7 28 2 53 16 44 6 -4 8 4 3 23 -4 16 -3 24 2 17 12 -19 34 67 29
118 -3 36 -5 40 -11 22 -5 -12 -19 -29 -32 -38 -13 -8 -24 -21 -24 -29 0 -7
-9 -21 -20 -31 -11 -10 -20 -26 -20 -37 0 -36 -20 -17 -21 20 0 40 -17 93 -18
60 -1 -10 -6 -18 -11 -18 -6 0 -15 -11 -20 -25 -5 -14 -16 -25 -25 -25 -20 0
-20 -38 0 -60 16 -18 13 -31 -46 -175 -4 -11 -12 -42 -18 -70 -11 -56 -29
-108 -30 -86 -1 8 -13 -2 -28 -22 -16 -19 -36 -38 -45 -40 -23 -6 -23 -27 -1
-27 9 0 13 -3 9 -7 -8 -8 -13 -10 -46 -12 -27 -1 -25 -19 3 -24 19 -4 18 -4
-5 -6 -16 0 -28 3 -28 8 0 5 -9 11 -19 14 -18 4 -19 14 -15 138 3 107 7 141
23 173 22 44 33 75 35 91 1 6 7 21 15 34 11 20 11 25 0 32 -10 6 -11 9 -1 9
25 0 11 18 -15 18 -49 0 -48 1 -94 -198 -64 -282 -83 -340 -96 -301 -3 8 -8 9
-12 3 -4 -6 -23 -3 -51 9 l-45 18 35 1 35 2 -35 10 c-69 20 -79 26 -73 47 3
12 0 33 -6 49 -12 31 6 160 29 202 8 15 15 63 16 115 3 98 8 150 19 184 4 13
2 21 -5 21 -9 0 -27 32 -35 63 -2 4 -4 10 -5 15 -1 4 -2 11 -1 16 1 5 -7 18
-17 30 -30 33 -44 65 -37 86 4 11 2 20 -4 20 -5 0 -13 10 -17 22 -3 12 -17 33
-29 46 -20 21 -23 36 -23 88 0 34 -3 68 -7 75 -5 7 -4 10 2 6 12 -8 38 20 47
51 4 12 15 22 24 22 12 0 13 3 5 8 -21 13 2 34 42 37 20 2 40 6 43 9 3 3 11 1
19 -5 9 -8 20 -8 41 0z m-4678 -419 c0 -5 -4 -10 -10 -10 -5 0 -10 5 -10 10 0
6 5 10 10 10 6 0 10 -4 10 -10z m-183 -26 c-3 -3 -12 -4 -19 -1 -8 3 -5 6 6 6
11 1 17 -2 13 -5z m147 -45 c-8 -14 -24 -10 -24 6 0 9 6 12 15 9 8 -4 12 -10
9 -15z m385 -40 c9 0 0 -6 -19 -14 l-35 -13 28 -11 c22 -9 26 -14 19 -28 -5
-10 -7 -23 -5 -29 5 -14 -24 -27 -32 -14 -3 5 0 12 6 16 6 3 7 9 3 13 -10 7
-44 66 -44 75 0 3 9 6 20 6 14 0 20 7 21 23 l0 22 11 -22 c6 -13 18 -23 27
-24z m3941 -71 c0 -9 3 -8 10 2 15 24 21 7 25 -76 3 -44 5 -83 6 -89 2 -24
-13 -121 -20 -128 -10 -10 -71 14 -89 36 -8 9 -11 21 -7 27 3 5 1 10 -5 10 -6
0 -8 5 -5 10 4 6 12 7 18 4 8 -5 8 -3 0 7 -18 18 -16 40 2 33 17 -7 21 11 5
21 -8 5 -7 12 1 22 10 12 10 16 -2 24 -8 5 -9 9 -3 9 6 0 14 16 17 36 6 36 22
64 38 64 5 0 9 -6 9 -12z m-4164 -16 c21 -14 31 -47 38 -122 9 -113 -24 -156
-89 -114 -74 48 -71 193 5 231 29 15 31 15 46 5z m244 -1 c0 -6 -4 -13 -10
-16 -5 -3 -10 1 -10 9 0 9 5 16 10 16 6 0 10 -4 10 -9z m4247 -13 c-3 -8 -6
-5 -6 6 -1 11 2 17 5 13 3 -3 4 -12 1 -19z m-4251 -43 c-2 -7 2 -16 10 -19 22
-8 17 -23 -8 -22 -13 1 -22 9 -24 21 -5 28 4 48 17 40 6 -4 8 -13 5 -20z m-41
4 c8 -13 6 -15 -23 -24 -22 -6 -23 -5 -13 14 13 23 26 27 36 10z m-391 -29 c6
0 19 -7 29 -14 14 -11 15 -19 8 -40 -7 -17 -15 -24 -26 -20 -9 4 -15 1 -15 -9
0 -8 7 -18 16 -21 10 -4 14 -12 10 -22 -4 -9 4 -28 19 -46 14 -16 23 -34 19
-39 -3 -5 3 -9 12 -9 10 0 14 -3 11 -7 -4 -3 -3 -11 3 -18 5 -6 12 -30 16 -53
6 -36 4 -41 -9 -36 -11 4 -16 0 -16 -13 1 -10 -2 -28 -6 -40 -7 -20 -4 -23 23
-23 21 0 36 -7 46 -22 19 -27 21 -79 4 -96 -9 -9 -9 -15 0 -24 9 -9 16 -8 30
5 25 23 26 23 48 -23 10 -22 24 -40 30 -40 15 0 38 -73 30 -98 -6 -19 -8 -19
-38 -5 -17 9 -36 29 -42 44 -6 16 -16 29 -23 29 -7 0 -13 9 -13 20 0 11 -6 23
-14 26 -8 3 -13 11 -10 19 3 7 -5 15 -20 19 -14 3 -26 12 -26 18 0 22 -53 89
-61 77 -9 -16 -32 -1 -25 17 3 8 -1 17 -10 21 -8 3 -13 12 -10 19 3 9 -1 14
-12 14 -13 0 -14 2 -4 9 10 6 11 16 4 42 -6 19 -11 28 -11 20 -1 -11 -4 -11
-17 0 -10 8 -13 21 -9 37 5 19 3 23 -8 19 -11 -4 -13 0 -10 14 3 11 0 19 -6
19 -9 0 -9 5 -1 20 6 12 8 30 5 40 -5 14 -2 20 10 20 14 0 14 2 0 24 -11 17
-13 25 -4 28 8 3 7 14 -4 41 -14 33 -14 37 0 37 10 0 13 6 9 16 -5 14 -1 16
25 10 17 -3 37 -6 43 -6z m441 -39 c-6 -5 -26 -12 -45 -15 -35 -7 -35 -7 -10
8 27 17 70 22 55 7z m4889 -30 c-5 -3 -10 -17 -11 -31 -5 -63 -33 -194 -43
-200 -7 -4 -12 -11 -13 -15 -4 -20 -106 -114 -110 -102 -3 7 -6 3 -6 -7 -1
-11 -3 -17 -6 -15 -12 13 36 202 71 277 33 69 42 82 59 78 13 -4 25 2 33 15 7
11 17 17 23 13 6 -4 7 -9 3 -13z m-4826 -143 c20 -20 13 -36 -19 -43 -38 -9
-43 -4 -28 29 13 28 28 33 47 14z m3851 2 c14 -1 15 -1 0 -10 -12 -7 -15 -22
-13 -62 3 -41 -1 -59 -19 -85 -12 -18 -30 -33 -39 -33 -10 0 -18 -4 -18 -10 0
-11 -68 -25 -78 -16 -3 4 0 11 8 16 11 7 11 10 2 10 -10 0 -10 5 -2 20 6 11 9
24 6 29 -3 4 6 13 19 19 27 12 33 8 44 -35 6 -21 10 -16 30 43 22 66 22 68 5
81 -16 11 -16 15 -5 22 12 8 12 10 0 14 -8 2 -1 3 15 1 16 -2 36 -4 45 -4z
m-3801 -97 c6 -15 12 -34 12 -43 0 -9 5 -21 11 -27 29 -29 -125 -57 -173 -32
-24 13 -50 72 -42 93 11 28 32 17 42 -21 5 -21 10 -30 11 -20 2 35 57 75 106
76 12 1 25 -10 33 -26z m4669 -99 c-3 -3 -12 -4 -19 -1 -8 3 -5 6 6 6 11 1 17
-2 13 -5z m-27 -35 c0 -6 -4 -7 -10 -4 -5 3 -10 11 -10 16 0 6 5 7 10 4 6 -3
10 -11 10 -16z m-4890 -290 c0 -5 -4 -9 -10 -9 -5 0 -10 7 -10 16 0 8 5 12 10
9 6 -3 10 -10 10 -16z"/>
<path d="M4370 13619 c-11 -7 -1 -8 35 -3 28 4 52 8 54 10 10 9 -76 3 -89 -7z"/>
<path d="M4280 13600 c0 -5 5 -10 11 -10 5 0 7 5 4 10 -3 6 -8 10 -11 10 -2 0
-4 -4 -4 -10z"/>
<path d="M5490 12840 c-37 -11 -120 -63 -90 -55 l25 6 -25 -22 c-17 -15 -19
-20 -7 -16 15 6 16 4 7 -13 -6 -11 -14 -20 -19 -20 -4 0 -36 -25 -70 -56 -59
-54 -90 -99 -105 -154 l-7 -25 21 25 21 25 -15 -32 c-18 -36 -21 -89 -6 -98 6
-3 10 -15 10 -25 0 -19 45 -80 59 -80 4 0 5 21 0 48 -4 26 -3 52 1 57 4 6 10
23 14 38 4 16 18 41 31 55 14 15 25 29 25 33 0 24 165 79 240 79 56 0 144 -27
198 -60 52 -32 116 -113 128 -163 5 -22 9 -25 20 -16 16 13 16 13 18 -23 1
-19 -4 -30 -16 -34 -10 -3 -18 -10 -18 -15 0 -15 15 -11 37 10 12 11 24 17 27
14 3 -4 6 -1 6 5 0 7 6 12 14 12 72 0 -72 200 -189 264 -114 62 -273 74 -403
31 -117 -39 -143 -24 -72 41 79 73 94 79 210 79 192 0 283 -42 402 -185 33
-39 38 -42 38 -22 0 32 -12 51 -91 150 -5 6 -6 12 -2 12 4 0 -8 10 -27 22 -19
12 -38 21 -42 20 -5 -1 -8 3 -8 8 0 6 -7 10 -15 10 -8 0 -15 4 -15 8 0 13 -99
50 -164 61 -68 12 -110 13 -146 1z m-203 -402 c-3 -8 -6 -5 -6 6 -1 11 2 17 5
13 3 -3 4 -12 1 -19z"/>
<path d="M5469 12556 c-95 -64 -118 -152 -66 -253 9 -17 22 -35 28 -39 8 -5 8
-9 -1 -14 -16 -10 75 -30 136 -30 56 0 90 17 137 69 42 47 51 75 45 136 -10
84 -82 145 -180 151 -54 4 -68 1 -99 -20z m174 -61 c19 -13 16 -55 -3 -55 -16
0 -40 31 -40 51 0 22 17 24 43 4z"/>
<path d="M5894 12265 c-10 -8 -14 -15 -8 -15 5 0 19 7 30 15 10 8 14 15 8 15
-5 0 -19 -7 -30 -15z"/>
<path d="M5820 12226 c0 -2 7 -7 16 -10 8 -3 12 -2 9 4 -6 10 -25 14 -25 6z"/>
<path d="M5788 12203 c7 -3 16 -2 19 1 4 3 -2 6 -13 5 -11 0 -14 -3 -6 -6z"/>
<path d="M5515 12190 c3 -5 18 -10 32 -10 32 0 28 5 -10 14 -19 4 -26 3 -22
-4z"/>
<path d="M5695 12190 c-11 -5 -33 -9 -50 -10 -29 -2 -29 -2 -5 -9 15 -5 42 -2
65 6 21 7 45 11 52 9 7 -3 13 -1 13 4 0 12 -47 12 -75 0z"/>
<path d="M5340 12186 c0 -2 16 -13 36 -25 19 -12 32 -16 29 -11 -7 11 -65 43
-65 36z"/>
<path d="M5414 12167 c27 -22 163 -64 173 -53 3 3 -28 14 -69 26 -40 12 -86
29 -103 37 l-30 15 29 -25z"/>
<path d="M6362 11631 c13 -22 28 -28 28 -11 0 5 -9 14 -20 20 -19 10 -20 10
-8 -9z"/>
<path d="M6670 11551 c0 -8 -7 -11 -17 -6 -15 5 -16 4 -5 -6 9 -10 15 -10 24
-1 6 6 9 15 5 19 -4 3 -7 1 -7 -6z"/>
<path d="M2740 4684 c0 -8 5 -12 10 -9 6 4 8 11 5 16 -9 14 -15 11 -15 -7z"/>
<path d="M2750 4410 c0 -5 5 -10 10 -10 6 0 10 5 10 10 0 6 -4 10 -10 10 -5 0
-10 -4 -10 -10z"/>
<path d="M2490 4391 c0 -6 5 -13 10 -16 6 -3 10 1 10 9 0 9 -4 16 -10 16 -5 0
-10 -4 -10 -9z"/>
<path d="M7664 4006 c-3 -8 -1 -23 5 -33 9 -15 10 -13 11 15 0 34 -7 42 -16
18z"/>
<path d="M7228 3583 c7 -3 16 -2 19 1 4 3 -2 6 -13 5 -11 0 -14 -3 -6 -6z"/>
<path d="M7275 3550 c-3 -6 1 -7 9 -4 18 7 21 14 7 14 -6 0 -13 -4 -16 -10z"/>
<path d="M3554 14262 c-21 -14 -37 -53 -25 -65 14 -14 54 21 47 40 -3 7 -1 13
4 13 6 0 10 5 10 10 0 12 -20 13 -36 2z"/>
<path d="M2958 13943 c-5 -23 11 -73 23 -73 5 0 9 20 9 45 0 32 -4 45 -14 45
-8 0 -16 -8 -18 -17z"/>
<path d="M2890 13854 c-15 -43 -1 -101 29 -128 26 -24 30 -11 20 64 -16 111
-28 127 -49 64z"/>
<path d="M3397 973 c-12 -12 -7 -33 7 -33 9 0 14 9 13 20 -1 20 -9 25 -20 13z"/>
</g>
</svg>
